<svg xmlns="http://www.w3.org/2000/svg" xmlns:xlink="http://www.w3.org/1999/xlink" version="1.1" x="0px" y="0px" viewBox="0 0 491.5 614.375" style="enable-background:new 0 0 491.5 491.5;" xml:space="preserve"><g><path d="M69.1,182.3h353.3h7.7v7.7v224.2v7.7h-7.7H69.1h-7.7v-7.7V190v-7.7L69.1,182.3L69.1,182.3z M414.7,197.6H76.8v208.8h337.9   V197.6L414.7,197.6z"/><g><path d="M192.7,215.7l43.4,15.4l5.1,1.8l0,5.4l0,18.4l0,5.4L236,264l-43.4,15.3c-1.2,0.4-2.4,0.6-3.6,0.6v0    c-3.1,0-5.7-1.2-7.8-3.2c-1.7-1.5-3-3.6-3.7-5.7c-0.5-1.5-0.8-3.1-0.8-4.7l0-37.6c0-1.6,0.3-3.2,0.8-4.7c0.8-2.2,2.1-4.2,3.7-5.7    c2.1-1.9,4.8-3.2,7.8-3.2C190.3,215.1,191.5,215.3,192.7,215.7L192.7,215.7z M225.8,243.7l-33.8-12l0,31.5l33.8-12L225.8,243.7    L225.8,243.7z"/><path d="M299.5,231.8l-33.8,12l0,7.6l33.8,12L299.5,231.8z M255.5,231.1l43.4-15.3c1.2-0.4,2.4-0.6,3.6-0.6    c3.1,0,5.7,1.2,7.8,3.2c1.7,1.5,3,3.6,3.7,5.7c0.5,1.5,0.8,3.1,0.8,4.7l0,37.6c0,1.6-0.3,3.2-0.8,4.7c-0.8,2.2-2.1,4.2-3.7,5.7    c-2.1,1.9-4.8,3.2-7.8,3.2c-1.2,0-2.4-0.2-3.6-0.6L255.5,264l-5.1-1.8l0-5.4l0-18.4l0-5.4L255.5,231.1L255.5,231.1z"/><path d="M239.2,223.8l12.9,0c3.7,0,7.1,1.5,9.5,3.9c2.4,2.4,3.9,5.8,3.9,9.5l0,20.5c0,3.7-1.5,7.1-3.9,9.5    c-2.4,2.4-5.8,3.9-9.5,3.9l-12.9,0v0h0v0c-3.7,0-7.1-1.5-9.5-3.9c-2.4-2.4-3.9-5.8-3.9-9.5h0v0h0l0-20.5c0-3.7,1.5-7.1,3.9-9.5    C232.2,225.3,235.5,223.8,239.2,223.8z M250.2,239.1l-9.1,0l0,16.8l9.1,0L250.2,239.1z"/></g><polygon points="325.5,239.8 422.4,239.8 422.4,255.2 325.5,255.2  "/><polygon points="64.4,239.8 161.3,239.8 161.3,255.2 64.4,255.2  "/><polygon points="251.1,190 251.1,216.8 235.7,216.8 235.7,190  "/><polygon points="251.1,280 251.1,414.1 235.7,414.1 235.7,280  "/><path d="M137.8,145c22.4-11.6,31.5-26.6,32.5-38.9c0.4-5-0.5-9.5-2.5-13c-1.7-3-4.1-5.2-6.9-6c-4.6-1.4-10.9,0.5-17.6,7.5l-5.5,5.7   l-5.5-5.7c-6.7-7-13-8.9-17.6-7.5c-2.8,0.9-5.3,3-6.9,6c-1.9,3.4-2.9,7.9-2.5,13C106.3,118.5,115.4,133.5,137.8,145L137.8,145z    M185.6,107.4c-1.5,17.5-13.9,38.5-44.6,53.1l-3.3,1.6l-3.3-1.6c-30.7-14.6-43.1-35.6-44.6-53.1c-0.7-8.2,1-15.7,4.4-21.7   c3.6-6.4,9.2-11.1,15.9-13.2c8.3-2.5,18-0.9,27.6,6.5c9.6-7.4,19.3-9,27.6-6.5c6.7,2,12.3,6.7,15.9,13.2   C184.6,91.7,186.3,99.2,185.6,107.4z"/><path d="M355.5,145c14.7-7.9,20.7-17.7,21.3-25.8c0.3-3.2-0.3-6-1.5-8.1c-1-1.7-2.3-2.9-3.8-3.4c-2.6-0.8-6.3,0.5-10.6,4.8   l-5.5,5.7l-5.5-5.7c-4.2-4.4-7.9-5.6-10.6-4.8c-1.5,0.5-2.8,1.7-3.8,3.4c-1.2,2.1-1.8,4.9-1.5,8.1   C334.9,127.3,340.9,137.1,355.5,145L355.5,145z M392.1,120.4c-1.1,13.3-10.4,29.2-33.4,40.1l-3.3,1.6l-3.3-1.6   c-22.9-10.9-32.3-26.8-33.4-40.1c-0.5-6.3,0.8-12.2,3.4-16.9c2.9-5.1,7.3-8.9,12.7-10.5c6.2-1.9,13.4-0.9,20.5,4.1   c7.1-5,14.3-5.9,20.5-4.1c5.4,1.6,9.8,5.4,12.7,10.5C391.4,108.3,392.7,114.1,392.1,120.4z"/><path d="M263.1,80.7l8.9,18.4l17.5,1.1l17.4,1.1l-12.5,12l-14.8,14.2l4.3,17.1l4.3,16.9l-15.3-8.2l-18.1-9.7L240,153l-14.7,9.3   l3.1-17.1L232,125l-13.5-11.2l-13.4-11.1l17.2-2.4l20.3-2.8l6.5-16.3l6.4-16.2L263.1,80.7L263.1,80.7z M260.2,109.8l-3.3-6.8   l-1.7,4.3l-1.7,4.2l-4.4,0.6l-7.5,1l3.6,3l3.4,2.8l-0.8,4.4l-1.3,7.4l4-2.5l3.8-2.4l3.9,2.1l6.7,3.6l-1.1-4.5l-1.1-4.3l3.2-3.1   l5.4-5.2l-4.6-0.3l-4.5-0.3L260.2,109.8z"/></g><text x="0" y="506.5" fill="#000000" font-size="5px" font-weight="bold" font-family="'Helvetica Neue', Helvetica, Arial-Unicode, Arial, Sans-serif">Created by @w@n  !cons</text><text x="0" y="511.5" fill="#000000" font-size="5px" font-weight="bold" font-family="'Helvetica Neue', Helvetica, Arial-Unicode, Arial, Sans-serif">from the Noun Project</text></svg>