<svg xmlns="http://www.w3.org/2000/svg" data-name="Layer 1" viewBox="0 0 100 125" x="0px" y="0px"><title>birthday party jadi</title><path d="M82.06,56.15,71.53,46a7.35,7.35,0,0,0,1.77.28h.06A5.34,5.34,0,0,0,77,37.09a5.37,5.37,0,0,0-3.8-1.5,6.32,6.32,0,0,0-1.35.22,5.28,5.28,0,0,0-5.56-5.36,6.32,6.32,0,0,0,.18-1.36,5.34,5.34,0,0,0-10.68.19,7.08,7.08,0,0,0,.35,1.82L45.58,20.94a3.06,3.06,0,0,0-2.14-.84,3,3,0,0,0-2.11.92L34.49,28.1a1,1,0,0,0,0,1.41L49.55,44H18a1,1,0,0,0-1,1V78.9a1,1,0,0,0,1,1h40.6a1,1,0,0,0,1-1V53.74L73.88,67.51a1,1,0,0,0,1.41,0l6.84-7.09a3,3,0,0,0-.08-4.24ZM54.58,46.1,54.43,46l6.84-7.09.43.42h0l1.46,1.41.09.09-6.84,7.09Zm18.63-8.51a3.17,3.17,0,0,1,2.38.94,3.34,3.34,0,0,1-2.26,5.74c-.3,0-1.47-.12-5.06-1.43l-.42-.41-2.23-2.15c1.39-.61,3-1.27,4.4-1.79l.18-.06.54-.19A9.64,9.64,0,0,1,73.21,37.59ZM65.7,32.53a3.32,3.32,0,0,1,4.06,3.92h0c-1.15.41-2.55,1-4.16,1.66l-.15.06-.59.26-.75.33-.49-.48.14-.36c.86-2.15,1.52-4,2-5.39Zm-7.93-3.28A3.35,3.35,0,0,1,61,25.85a3.28,3.28,0,0,1,2.38.94,3.32,3.32,0,0,1,1,2.34,9.82,9.82,0,0,1-.57,2.54l-.15.46-.08.25c-.47,1.43-1.07,3-1.63,4.43l-2.65-2.56C57.94,30.72,57.77,29.58,57.76,29.25Zm-15-6.85a1,1,0,0,1,.7-.31.9.9,0,0,1,.71.28L57.83,35.54h0l1.81,1.74.19.19L53,44.56,36.63,28.77ZM19,46H33.16V77.9H19ZM35.16,77.9V46h6.33V77.9Zm22.46,0H43.48V46h8.14l6,5.78ZM80.7,59l-6.15,6.37L59.31,50.66h0l-1.46-1.41,6.84-7.09.54.52L80.67,57.59a1,1,0,0,1,0,1.41Z"/><text x="0" y="115" fill="#000000" font-size="5px" font-weight="bold" font-family="'Helvetica Neue', Helvetica, Arial-Unicode, Arial, Sans-serif">Created by Edwin PM</text><text x="0" y="120" fill="#000000" font-size="5px" font-weight="bold" font-family="'Helvetica Neue', Helvetica, Arial-Unicode, Arial, Sans-serif">from the Noun Project</text></svg>